<svg xmlns="http://www.w3.org/2000/svg" viewBox="0 0 64 64">
  <defs>
    <linearGradient id="field" x1="0%" y1="0%" x2="100%" y2="100%">
      <stop offset="0%" stop-color="#2f8f54" />
      <stop offset="100%" stop-color="#165233" />
    </linearGradient>
  </defs>
  <rect x="4" y="4" width="56" height="56" rx="14" fill="url(#field)" />
  <circle cx="32" cy="32" r="19" fill="#ffffff" />
  <circle cx="32" cy="32" r="19" fill="none" stroke="#d6d6d6" stroke-width="1.2" />
  <polygon
    points="32,22.6 25.9,27 28.2,34.1 35.8,34.1 38.1,27"
    fill="#1b1b1b" />
  <g
    fill="none"
    stroke="#1b1b1b"
    stroke-linecap="round"
    stroke-linejoin="round"
    stroke-width="2.4">
    <path d="M25.9 27 19.4 24.4" />
    <path d="M32 22.6 32 16.8" />
    <path d="M38.1 27 44.6 24.4" />
    <path d="M28.2 34.1 23.5 40.2" />
    <path d="M35.8 34.1 40.5 40.2" />
    <path d="M19.4 24.4 16.5 31.8 23.5 40.2" />
    <path d="M44.6 24.4 47.5 31.8 40.5 40.2" />
    <path d="M23.5 40.2 31.4 45.7 40.5 40.2" />
  </g>
</svg>
